<svg id="svg" version="1.1" xmlns="http://www.w3.org/2000/svg" xmlns:xlink="http://www.w3.org/1999/xlink" width="400" height="400" viewBox="0, 0, 400,400"><g id="svgg"><path id="path0" d="M190.563 58.549 C 190.475 58.636,189.225 58.770,187.785 58.846 C 186.345 58.922,184.792 59.060,184.333 59.153 C 183.875 59.246,182.738 59.403,181.807 59.503 C 180.876 59.602,179.802 59.743,179.421 59.817 C 179.039 59.890,178.001 60.056,177.113 60.185 C 175.332 60.443,175.397 60.432,172.333 61.009 C 171.142 61.234,169.942 61.495,169.667 61.588 C 169.392 61.682,168.942 61.787,168.667 61.822 C 167.764 61.935,164.517 62.711,163.667 63.016 C 163.208 63.181,162.458 63.385,162.000 63.471 C 161.542 63.556,160.717 63.770,160.167 63.946 C 158.427 64.504,153.517 66.058,153.080 66.189 C 152.849 66.258,152.624 66.289,152.580 66.256 C 152.536 66.224,152.050 66.446,151.500 66.749 C 150.950 67.053,149.558 67.630,148.406 68.032 C 147.255 68.435,146.234 68.892,146.137 69.048 C 146.040 69.205,145.684 69.333,145.345 69.333 C 145.007 69.333,144.078 69.650,143.282 70.038 C 142.485 70.425,141.308 70.986,140.667 71.285 C 140.025 71.583,139.390 71.978,139.255 72.163 C 139.120 72.349,139.008 72.396,139.005 72.270 C 139.000 72.040,132.318 75.248,132.000 75.632 C 131.908 75.743,131.619 75.880,131.357 75.937 C 131.095 75.993,130.471 76.331,129.972 76.687 C 129.472 77.042,128.968 77.333,128.850 77.333 C 128.733 77.333,127.525 78.083,126.167 79.000 C 124.808 79.917,123.630 80.667,123.549 80.667 C 123.378 80.667,120.353 82.683,119.191 83.571 C 118.762 83.898,118.078 84.392,117.671 84.667 C 114.902 86.539,109.063 91.104,106.676 93.262 C 102.186 97.323,95.000 104.562,95.000 105.024 C 95.000 105.255,94.911 105.355,94.802 105.246 C 94.616 105.061,93.419 106.340,90.667 109.663 C 90.025 110.438,89.363 111.318,89.195 111.619 C 89.027 111.920,88.792 112.242,88.672 112.333 C 88.021 112.830,84.333 117.826,84.333 118.212 C 84.333 118.462,84.213 118.667,84.067 118.667 C 83.921 118.667,83.433 119.263,82.984 119.991 C 82.534 120.719,82.054 121.319,81.917 121.324 C 81.779 121.329,81.667 121.487,81.667 121.674 C 81.667 122.043,80.095 124.559,79.417 125.274 C 79.188 125.516,79.000 125.855,79.000 126.027 C 79.000 126.199,78.550 126.960,78.000 127.720 C 77.450 128.479,77.000 129.284,77.000 129.509 C 77.000 129.734,76.775 130.105,76.500 130.333 C 76.225 130.562,76.000 131.002,76.000 131.311 C 76.000 131.621,75.731 132.165,75.401 132.520 C 74.541 133.448,70.306 142.265,68.687 146.500 C 68.266 147.600,67.655 149.100,67.330 149.833 C 67.005 150.567,66.180 152.892,65.497 155.000 C 64.814 157.108,64.107 159.283,63.927 159.833 C 63.746 160.383,63.569 161.061,63.533 161.339 C 63.498 161.617,63.384 161.992,63.280 162.173 C 63.082 162.518,62.728 163.867,62.176 166.382 C 62.090 166.776,61.859 167.583,61.663 168.177 C 61.468 168.770,61.337 169.385,61.373 169.544 C 61.410 169.703,61.344 170.058,61.229 170.333 C 61.008 170.857,60.312 174.568,60.165 176.000 C 60.118 176.458,60.000 177.058,59.901 177.333 C 59.803 177.608,59.726 178.058,59.730 178.333 C 59.734 178.608,59.655 179.433,59.555 180.167 C 59.455 180.900,59.278 182.400,59.163 183.500 C 59.048 184.600,58.892 185.725,58.817 186.000 C 58.520 187.084,58.243 194.115,58.292 199.333 C 58.352 205.798,58.760 213.491,59.159 215.667 C 59.243 216.125,59.394 217.400,59.495 218.500 C 59.596 219.600,59.748 220.875,59.834 221.333 C 59.919 221.792,60.063 222.622,60.153 223.178 C 60.303 224.103,61.872 232.075,62.163 233.395 C 62.231 233.704,62.452 234.266,62.655 234.645 C 62.858 235.024,62.958 235.333,62.879 235.333 C 62.800 235.333,63.102 236.646,63.551 238.250 C 64.000 239.854,64.506 241.692,64.676 242.333 C 64.846 242.975,65.372 244.550,65.844 245.833 C 66.317 247.117,66.850 248.649,67.030 249.238 C 67.211 249.827,67.505 250.400,67.684 250.511 C 67.864 250.622,67.938 250.830,67.849 250.974 C 67.677 251.252,69.348 255.397,71.083 259.000 C 71.657 260.192,72.145 261.242,72.168 261.333 C 72.248 261.658,73.836 264.836,74.000 265.000 C 74.092 265.092,74.612 266.067,75.156 267.167 C 75.700 268.267,76.609 269.917,77.176 270.833 C 77.743 271.750,78.316 272.725,78.450 273.000 C 78.977 274.086,80.945 277.062,81.976 278.333 C 82.348 278.792,82.655 279.328,82.659 279.525 C 82.663 279.722,83.042 280.236,83.500 280.667 C 83.958 281.097,84.333 281.612,84.333 281.812 C 84.333 282.011,84.714 282.584,85.180 283.087 C 85.646 283.589,85.908 284.002,85.763 284.005 C 85.619 284.008,85.660 284.120,85.855 284.255 C 86.051 284.390,86.673 285.175,87.238 286.000 C 87.802 286.825,88.880 288.162,89.632 288.972 C 90.385 289.782,91.000 290.546,91.000 290.671 C 91.000 291.254,102.661 303.227,106.180 306.257 C 108.468 308.228,108.532 308.282,110.984 310.265 C 112.185 311.236,113.467 312.300,113.833 312.630 C 114.200 312.960,114.826 313.402,115.224 313.613 C 115.622 313.823,116.147 314.187,116.391 314.421 C 117.088 315.092,120.232 317.333,120.475 317.333 C 120.596 317.333,120.876 317.491,121.097 317.684 C 122.155 318.606,130.811 323.950,131.028 323.816 C 131.165 323.731,131.327 323.803,131.388 323.974 C 131.505 324.301,142.759 330.000,143.287 330.000 C 143.454 330.000,144.009 330.217,144.521 330.483 C 145.033 330.749,145.575 330.890,145.726 330.797 C 145.877 330.703,146.000 330.770,146.000 330.944 C 146.000 331.204,146.642 331.485,148.000 331.820 C 148.092 331.843,148.654 332.121,149.250 332.439 C 149.846 332.757,150.333 332.947,150.333 332.861 C 150.333 332.775,151.019 333.008,151.858 333.379 C 152.697 333.750,153.784 334.125,154.275 334.213 C 154.765 334.301,155.297 334.503,155.457 334.661 C 155.617 334.819,155.955 334.869,156.207 334.772 C 156.460 334.675,156.667 334.752,156.667 334.944 C 156.667 335.135,156.929 335.281,157.250 335.267 C 157.571 335.254,159.019 335.640,160.469 336.125 C 161.919 336.610,163.176 336.935,163.263 336.848 C 163.350 336.761,163.664 336.820,163.960 336.978 C 164.257 337.137,165.049 337.354,165.720 337.460 C 166.391 337.566,167.291 337.798,167.720 337.975 C 168.742 338.397,174.052 339.447,177.000 339.811 C 177.642 339.890,178.167 339.975,178.167 340.000 C 178.167 340.025,178.560 340.098,179.042 340.162 C 179.523 340.227,180.423 340.358,181.042 340.455 C 186.233 341.267,191.445 341.567,200.333 341.564 C 204.642 341.563,209.292 341.439,210.667 341.289 C 212.042 341.139,214.067 340.939,215.167 340.846 C 217.057 340.685,218.541 340.500,220.833 340.142 C 221.383 340.056,222.508 339.901,223.333 339.798 C 224.158 339.695,225.372 339.474,226.030 339.307 C 226.689 339.140,228.039 338.842,229.030 338.646 C 231.622 338.133,233.731 337.638,236.667 336.855 C 236.942 336.782,237.842 336.564,238.667 336.370 C 239.492 336.177,241.517 335.560,243.167 335.000 C 244.817 334.439,246.437 333.917,246.767 333.840 C 247.098 333.762,247.809 333.478,248.347 333.210 C 248.886 332.941,249.776 332.622,250.326 332.502 C 250.876 332.381,251.411 332.144,251.516 331.974 C 251.620 331.805,251.927 331.667,252.197 331.667 C 252.467 331.667,253.770 331.142,255.093 330.500 C 256.415 329.858,257.624 329.333,257.777 329.333 C 258.184 329.333,262.631 327.111,263.246 326.600 C 263.534 326.362,263.784 326.232,263.801 326.312 C 263.830 326.441,267.052 324.883,268.837 323.878 C 272.431 321.853,275.549 319.950,277.800 318.407 C 279.285 317.388,281.250 316.043,282.167 315.417 C 283.083 314.791,284.245 313.916,284.747 313.473 C 285.250 313.029,285.800 312.667,285.969 312.667 C 286.139 312.667,286.328 312.548,286.389 312.403 C 286.450 312.258,287.097 311.695,287.827 311.153 C 289.463 309.937,290.330 309.210,292.188 307.500 C 292.984 306.767,294.416 305.492,295.370 304.667 C 297.453 302.864,302.855 297.424,305.167 294.802 C 306.083 293.762,307.211 292.518,307.673 292.039 C 308.135 291.559,309.031 290.492,309.665 289.667 C 310.298 288.842,310.905 288.092,311.014 288.000 C 311.122 287.908,311.875 286.933,312.687 285.833 C 313.499 284.733,314.242 283.758,314.339 283.667 C 314.545 283.471,319.677 275.918,320.167 275.089 C 320.350 274.779,320.863 273.920,321.307 273.179 C 321.751 272.439,322.051 271.812,321.973 271.785 C 321.896 271.758,322.108 271.433,322.444 271.062 C 323.512 269.882,329.163 258.785,330.030 256.167 C 330.273 255.433,330.655 254.608,330.879 254.333 C 331.103 254.058,331.316 253.683,331.352 253.500 C 331.462 252.944,331.702 252.270,332.663 249.813 C 333.169 248.518,333.832 246.600,334.138 245.551 C 334.443 244.502,334.861 243.236,335.068 242.738 C 335.461 241.793,336.568 238.062,337.167 235.667 C 337.258 235.300,337.402 234.738,337.487 234.417 C 337.659 233.763,338.898 228.221,339.331 226.167 C 339.486 225.433,339.709 224.158,339.828 223.333 C 339.947 222.508,340.119 221.308,340.210 220.667 C 340.302 220.025,340.452 219.050,340.543 218.500 C 340.634 217.950,340.778 216.675,340.862 215.667 C 340.946 214.658,341.124 212.633,341.257 211.167 C 341.547 207.989,341.530 195.071,341.230 190.833 C 341.114 189.183,340.944 186.663,340.852 185.233 C 340.760 183.803,340.601 182.497,340.499 182.332 C 340.397 182.166,340.236 181.237,340.143 180.266 C 340.049 179.294,339.823 177.739,339.641 176.808 C 339.459 175.878,339.238 174.528,339.149 173.808 C 339.060 173.089,338.761 171.600,338.486 170.500 C 338.210 169.400,337.913 168.125,337.825 167.667 C 337.506 166.007,337.084 164.208,336.984 164.083 C 336.947 164.037,336.887 163.887,336.852 163.750 C 335.807 159.721,334.607 155.892,334.240 155.417 C 334.063 155.188,334.014 155.000,334.130 155.000 C 334.247 155.000,334.103 154.438,333.811 153.750 C 333.518 153.063,333.220 152.200,333.147 151.833 C 333.075 151.467,332.802 150.642,332.541 150.000 C 332.281 149.358,331.732 148.008,331.323 147.000 C 329.772 143.176,329.110 141.701,328.756 141.274 C 328.555 141.032,328.358 140.683,328.319 140.500 C 328.098 139.458,326.240 135.588,324.638 132.833 C 324.105 131.917,323.484 130.792,323.258 130.333 C 323.032 129.875,322.769 129.425,322.673 129.333 C 322.578 129.242,322.055 128.304,321.512 127.250 C 320.968 126.196,320.423 125.333,320.301 125.333 C 320.178 125.333,319.990 125.071,319.882 124.750 C 319.670 124.120,318.959 122.936,318.630 122.667 C 318.518 122.575,318.184 122.027,317.888 121.448 C 317.591 120.870,317.151 120.195,316.909 119.948 C 316.668 119.702,315.601 118.225,314.540 116.667 C 313.479 115.108,312.306 113.571,311.935 113.250 C 311.563 112.929,311.374 112.667,311.514 112.667 C 311.654 112.667,311.478 112.404,311.123 112.083 C 310.767 111.763,309.883 110.750,309.158 109.833 C 307.600 107.863,303.000 102.601,303.000 102.788 C 303.000 102.860,301.762 101.628,300.250 100.052 C 297.109 96.777,296.525 96.216,294.015 94.061 C 293.015 93.203,291.943 92.275,291.632 92.000 C 289.058 89.725,287.204 88.245,285.035 86.736 C 283.641 85.765,282.450 84.828,282.389 84.652 C 282.328 84.477,282.091 84.333,281.864 84.333 C 281.636 84.333,281.097 83.958,280.667 83.500 C 280.236 83.042,279.708 82.667,279.494 82.667 C 279.279 82.667,278.864 82.404,278.572 82.083 C 278.280 81.762,277.319 81.125,276.437 80.667 C 275.555 80.208,274.749 79.721,274.647 79.583 C 274.368 79.209,271.011 77.228,268.613 76.022 C 267.451 75.438,266.012 74.672,265.417 74.320 C 264.821 73.968,264.331 73.790,264.328 73.923 C 264.325 74.057,264.213 74.008,264.078 73.815 C 263.730 73.315,258.256 70.667,257.571 70.667 C 257.257 70.667,257.000 70.517,257.000 70.333 C 257.000 70.150,256.848 70.000,256.663 70.000 C 256.478 70.000,255.681 69.697,254.893 69.326 C 254.105 68.956,253.149 68.593,252.769 68.520 C 252.389 68.446,251.498 68.095,250.789 67.738 C 249.683 67.182,247.187 66.236,246.667 66.176 C 246.575 66.165,246.350 66.068,246.167 65.961 C 244.731 65.118,234.239 62.352,227.333 60.994 C 222.229 59.991,221.299 59.854,212.333 58.777 C 210.399 58.545,190.772 58.339,190.563 58.549 M208.391 61.813 C 213.584 62.102,220.751 62.967,223.833 63.677 C 224.567 63.846,225.656 63.987,226.255 63.992 C 226.853 63.996,227.603 64.146,227.921 64.325 C 228.240 64.504,230.225 65.039,232.333 65.515 C 234.442 65.991,236.767 66.532,237.500 66.718 C 238.233 66.904,239.058 67.112,239.333 67.181 C 239.608 67.250,240.433 67.531,241.167 67.806 C 241.900 68.080,242.813 68.311,243.194 68.319 C 243.576 68.327,244.001 68.446,244.139 68.583 C 244.276 68.721,244.489 68.842,244.611 68.854 C 244.733 68.865,245.358 69.104,246.000 69.384 C 246.642 69.665,247.767 70.089,248.500 70.327 C 249.233 70.565,250.886 71.243,252.172 71.833 C 253.459 72.423,254.884 73.018,255.339 73.156 C 255.794 73.294,258.042 74.350,260.333 75.504 C 269.854 80.296,274.033 82.774,280.271 87.325 C 282.162 88.705,283.962 89.983,284.271 90.167 C 284.580 90.350,284.908 90.575,285.000 90.667 C 285.092 90.758,286.063 91.583,287.159 92.500 C 288.255 93.417,289.392 94.392,289.685 94.667 C 289.979 94.942,290.931 95.767,291.801 96.500 C 293.282 97.748,300.694 105.113,302.398 107.031 C 302.821 107.507,303.954 108.782,304.915 109.865 C 305.877 110.947,307.429 112.808,308.365 114.000 C 309.300 115.192,310.163 116.242,310.282 116.333 C 310.402 116.425,311.100 117.400,311.833 118.500 C 312.567 119.600,313.729 121.250,314.415 122.167 C 315.102 123.083,315.664 124.013,315.665 124.233 C 315.666 124.453,315.854 124.753,316.083 124.900 C 316.313 125.047,316.789 125.692,317.142 126.333 C 317.494 126.975,317.869 127.575,317.975 127.667 C 318.080 127.758,318.680 128.808,319.306 130.000 C 319.933 131.192,320.721 132.524,321.056 132.962 C 321.392 133.399,321.667 133.961,321.667 134.212 C 321.667 134.462,321.800 134.667,321.964 134.667 C 322.127 134.667,322.351 135.025,322.461 135.463 C 322.571 135.900,323.181 137.179,323.817 138.304 C 324.452 139.429,324.986 140.417,325.002 140.501 C 325.018 140.585,325.404 141.519,325.860 142.577 C 326.316 143.634,326.818 144.800,326.976 145.167 C 327.134 145.533,327.639 146.658,328.098 147.667 C 328.909 149.448,329.283 150.482,329.365 151.167 C 329.387 151.350,329.689 152.057,330.036 152.737 C 330.383 153.417,330.667 154.251,330.667 154.590 C 330.667 154.929,330.875 155.491,331.130 155.839 C 331.384 156.187,331.518 156.666,331.427 156.903 C 331.336 157.140,331.423 157.333,331.621 157.333 C 331.818 157.333,331.893 157.558,331.787 157.833 C 331.679 158.116,331.779 158.333,332.020 158.333 C 332.253 158.333,332.354 158.424,332.244 158.534 C 332.133 158.645,332.197 159.132,332.386 159.618 C 332.575 160.103,332.766 160.800,332.811 161.167 C 332.886 161.784,333.468 163.827,333.903 165.000 C 334.005 165.275,334.133 165.837,334.188 166.249 C 334.243 166.660,334.379 167.286,334.491 167.639 C 334.722 168.368,334.815 168.796,335.545 172.500 C 336.216 175.904,336.272 176.167,336.332 176.167 C 336.359 176.167,336.446 176.767,336.526 177.500 C 336.607 178.233,336.829 179.883,337.021 181.167 C 338.540 191.329,338.789 204.134,337.666 214.342 C 337.154 218.995,337.028 220.014,336.843 221.000 C 336.758 221.458,336.596 222.508,336.483 223.333 C 336.371 224.158,335.982 226.084,335.620 227.613 C 335.257 229.142,334.900 230.792,334.825 231.280 C 334.675 232.255,333.436 236.897,332.384 240.423 C 332.013 241.664,331.710 242.714,331.710 242.756 C 331.710 242.894,331.399 243.796,330.649 245.833 C 329.226 249.702,328.394 251.846,327.803 253.167 C 327.475 253.900,327.195 254.575,327.181 254.667 C 327.167 254.758,326.803 255.583,326.372 256.500 C 323.784 262.009,322.553 264.496,321.691 265.959 C 321.156 266.866,320.807 267.696,320.915 267.804 C 321.023 267.912,320.936 268.000,320.722 268.000 C 320.508 268.000,320.333 268.202,320.333 268.448 C 320.333 268.695,319.996 269.291,319.583 269.773 C 319.171 270.255,318.458 271.365,318.000 272.239 C 317.241 273.688,311.910 281.497,310.085 283.833 C 303.752 291.943,293.025 303.147,288.898 305.963 C 288.496 306.237,288.086 306.578,287.987 306.721 C 287.696 307.139,282.359 311.220,279.917 312.891 C 278.679 313.738,277.667 314.559,277.667 314.716 C 277.667 314.872,277.554 314.970,277.417 314.933 C 277.279 314.895,276.090 315.570,274.775 316.433 C 273.460 317.295,272.235 318.000,272.053 318.000 C 271.871 318.000,271.672 318.127,271.611 318.282 C 271.503 318.557,266.246 321.587,264.083 322.621 C 263.487 322.906,263.000 323.266,263.000 323.422 C 263.000 323.578,262.850 323.613,262.667 323.500 C 262.483 323.387,262.333 323.478,262.333 323.703 C 262.333 323.927,262.240 324.018,262.126 323.904 C 262.012 323.790,261.150 324.095,260.209 324.583 C 259.269 325.070,258.425 325.489,258.333 325.514 C 258.086 325.582,255.648 326.632,254.500 327.164 C 253.126 327.802,247.010 330.333,246.844 330.333 C 246.771 330.333,246.288 330.506,245.772 330.718 C 245.256 330.929,244.640 331.142,244.405 331.190 C 242.512 331.577,240.667 332.173,240.667 332.396 C 240.667 332.545,240.301 332.667,239.855 332.667 C 239.409 332.667,238.621 332.838,238.105 333.047 C 237.589 333.256,236.942 333.468,236.667 333.517 C 236.392 333.567,235.867 333.687,235.500 333.785 C 233.138 334.417,225.607 336.069,224.500 336.198 C 223.767 336.284,222.942 336.444,222.667 336.554 C 222.392 336.664,221.717 336.811,221.167 336.881 C 220.617 336.951,219.642 337.082,219.000 337.173 C 218.358 337.265,216.858 337.419,215.667 337.517 C 214.475 337.616,213.050 337.777,212.500 337.876 C 210.031 338.321,191.686 338.282,187.000 337.822 C 179.200 337.057,178.948 337.028,178.328 336.832 C 177.693 336.630,177.031 336.510,173.688 335.992 C 172.508 335.809,171.008 335.518,170.355 335.345 C 169.701 335.173,168.792 334.957,168.333 334.866 C 167.508 334.702,166.543 334.476,165.417 334.181 C 164.802 334.019,162.926 333.462,159.333 332.375 C 157.002 331.669,151.485 329.803,150.667 329.444 C 150.392 329.323,150.092 329.198,150.000 329.167 C 149.044 328.836,148.166 328.474,145.584 327.344 C 143.814 326.568,142.664 326.117,142.167 326.003 C 141.983 325.961,141.415 325.629,140.905 325.265 C 140.394 324.902,139.794 324.570,139.571 324.529 C 139.349 324.487,138.417 324.065,137.500 323.589 C 136.583 323.114,134.673 322.137,133.254 321.418 C 131.836 320.699,130.411 319.878,130.088 319.594 C 129.764 319.310,128.900 318.759,128.167 318.369 C 126.614 317.543,125.569 316.909,125.333 316.650 C 125.242 316.549,124.365 315.979,123.385 315.384 C 122.405 314.788,121.388 314.121,121.124 313.900 C 120.262 313.182,119.814 312.839,119.293 312.500 C 117.817 311.539,115.277 309.602,113.027 307.719 C 111.637 306.557,110.010 305.207,109.412 304.719 C 108.813 304.232,107.675 303.233,106.882 302.500 C 106.088 301.767,104.853 300.626,104.136 299.964 C 102.348 298.314,97.522 293.217,95.500 290.843 C 94.583 289.767,93.421 288.424,92.917 287.860 C 92.413 287.295,91.171 285.708,90.158 284.333 C 89.145 282.958,88.095 281.569,87.825 281.247 C 87.555 280.924,86.622 279.574,85.751 278.247 C 84.879 276.919,84.091 275.758,83.999 275.667 C 83.908 275.575,83.620 275.087,83.360 274.583 C 83.100 274.079,82.763 273.667,82.610 273.667 C 82.458 273.667,82.333 273.534,82.333 273.371 C 82.333 273.208,81.208 271.121,79.833 268.732 C 78.458 266.343,77.333 264.226,77.333 264.028 C 77.333 263.829,77.183 263.667,77.000 263.667 C 76.817 263.667,76.667 263.523,76.667 263.348 C 76.667 262.994,74.633 258.596,74.347 258.333 C 74.248 258.242,74.130 257.981,74.084 257.753 C 74.039 257.526,73.566 256.401,73.034 255.253 C 72.502 254.106,71.958 252.792,71.826 252.333 C 71.693 251.875,71.418 251.292,71.214 251.038 C 71.010 250.784,70.833 250.409,70.820 250.205 C 70.807 250.001,70.604 249.383,70.369 248.833 C 70.133 248.283,69.888 247.608,69.824 247.333 C 69.760 247.058,69.260 245.558,68.713 244.000 C 67.186 239.647,66.090 235.826,65.320 232.167 C 64.934 230.333,64.528 228.608,64.418 228.333 C 64.309 228.058,64.172 227.383,64.115 226.833 C 64.057 226.283,63.860 225.158,63.677 224.333 C 63.060 221.560,62.368 216.524,62.165 213.333 C 62.054 211.592,61.885 209.417,61.788 208.500 C 61.528 206.045,61.525 191.157,61.784 188.833 C 61.906 187.733,62.071 186.083,62.151 185.167 C 62.291 183.549,62.451 182.343,62.868 179.750 C 62.978 179.063,63.117 178.050,63.176 177.500 C 63.236 176.950,63.681 174.625,64.166 172.333 C 64.651 170.042,65.103 167.867,65.170 167.500 C 65.238 167.133,65.463 166.308,65.671 165.667 C 65.880 165.025,66.129 163.975,66.226 163.333 C 66.323 162.692,66.527 162.013,66.679 161.826 C 66.832 161.638,67.277 160.288,67.669 158.826 C 68.061 157.363,68.598 155.709,68.864 155.150 C 69.129 154.591,69.406 153.841,69.480 153.483 C 69.614 152.832,71.318 148.422,72.198 146.450 C 72.456 145.872,72.667 145.303,72.667 145.185 C 72.667 144.819,78.202 133.862,79.126 132.397 C 79.607 131.636,80.000 130.883,80.000 130.724 C 80.000 130.565,80.300 130.089,80.667 129.667 C 81.033 129.244,81.333 128.696,81.333 128.449 C 81.333 128.202,81.466 128.000,81.628 128.000 C 81.790 128.000,82.017 127.737,82.133 127.417 C 82.434 126.584,83.136 125.437,83.780 124.726 C 84.084 124.390,84.333 124.014,84.333 123.891 C 84.333 123.604,86.512 120.513,88.191 118.417 C 88.669 117.821,88.982 117.333,88.888 117.333 C 88.720 117.333,89.272 116.638,91.083 114.566 C 91.587 113.990,92.000 113.408,92.000 113.274 C 92.000 113.140,92.337 112.678,92.750 112.247 C 93.162 111.816,94.400 110.424,95.500 109.154 C 96.600 107.883,98.857 105.454,100.516 103.755 C 102.175 102.056,103.465 100.667,103.383 100.667 C 103.301 100.667,103.818 100.237,104.533 99.712 C 105.248 99.188,106.142 98.400,106.520 97.962 C 107.197 97.178,108.400 96.115,111.321 93.720 C 112.139 93.049,113.158 92.162,113.586 91.750 C 114.014 91.337,114.448 91.000,114.551 91.000 C 114.741 91.000,117.167 89.160,117.908 88.454 C 118.132 88.240,118.882 87.719,119.574 87.295 C 120.267 86.872,121.016 86.369,121.238 86.179 C 122.438 85.155,122.668 85.000,122.986 85.000 C 123.177 85.000,123.333 84.850,123.333 84.667 C 123.333 84.483,123.477 84.333,123.652 84.333 C 123.949 84.333,126.041 83.057,126.865 82.373 C 127.065 82.207,128.415 81.432,129.865 80.652 C 131.314 79.871,133.060 78.880,133.743 78.450 C 134.427 78.019,135.140 77.667,135.327 77.667 C 135.514 77.667,135.667 77.517,135.667 77.333 C 135.667 77.150,135.779 77.030,135.917 77.067 C 136.054 77.104,136.767 76.821,137.500 76.437 C 138.650 75.835,141.753 74.410,146.833 72.152 C 148.772 71.290,150.187 70.744,153.000 69.775 C 154.375 69.301,155.875 68.758,156.333 68.568 C 156.792 68.378,157.279 68.191,157.417 68.153 C 157.554 68.115,157.704 68.054,157.750 68.019 C 157.796 67.983,158.208 67.902,158.667 67.838 C 159.125 67.774,159.950 67.532,160.500 67.301 C 161.050 67.069,161.725 66.838,162.000 66.789 C 162.275 66.739,165.275 66.031,168.667 65.216 C 172.058 64.401,175.433 63.642,176.167 63.530 C 180.199 62.915,188.644 61.979,191.833 61.794 C 193.850 61.676,195.525 61.562,195.555 61.540 C 195.708 61.430,205.092 61.629,208.391 61.813 M227.000 119.778 C 227.000 134.322,226.896 146.327,226.768 146.454 C 226.641 146.582,226.509 146.873,226.475 147.102 C 226.151 149.310,220.354 153.670,217.746 153.666 C 217.071 153.665,193.332 129.627,193.311 128.922 C 193.232 126.229,193.072 124.390,192.853 123.667 C 192.309 121.877,190.871 119.280,190.077 118.656 C 189.619 118.295,189.376 117.997,189.538 117.994 C 189.701 117.991,189.308 117.657,188.667 117.251 C 188.025 116.845,187.233 116.271,186.907 115.973 C 184.136 113.447,176.446 113.884,172.749 116.778 C 170.967 118.172,168.406 121.772,168.201 123.169 C 168.162 123.432,168.026 123.752,167.899 123.879 C 167.771 124.007,167.667 124.890,167.667 125.843 L 167.667 127.575 165.364 129.288 C 164.097 130.229,162.973 131.000,162.867 131.000 C 162.697 131.000,160.448 132.616,159.000 133.778 C 158.725 133.999,157.975 134.504,157.333 134.901 C 156.692 135.298,155.853 135.916,155.469 136.276 C 155.085 136.635,154.335 137.165,153.802 137.454 C 153.269 137.743,152.465 138.270,152.015 138.626 L 151.196 139.273 152.848 138.963 C 153.757 138.792,155.025 138.589,155.667 138.511 C 159.486 138.049,160.411 137.912,162.756 137.457 C 164.180 137.180,165.905 136.898,166.589 136.830 C 167.273 136.762,168.358 136.603,169.000 136.477 C 170.540 136.176,171.225 136.216,171.741 136.640 C 173.484 138.073,174.265 138.606,174.917 138.810 C 175.425 138.969,175.667 139.307,175.667 139.856 C 175.667 140.302,175.670 140.704,175.674 140.750 C 175.737 141.438,178.203 148.378,178.725 149.333 C 179.669 151.060,181.101 153.000,181.433 153.000 C 181.623 153.000,181.675 153.103,181.549 153.229 C 181.423 153.355,181.878 154.030,182.561 154.729 L 183.802 156.000 166.568 156.000 L 149.333 156.000 149.333 161.667 C 149.333 167.305,149.337 167.334,150.083 167.386 C 151.957 167.517,152.949 167.610,154.500 167.797 C 155.417 167.907,157.217 168.073,158.500 168.164 C 159.783 168.256,161.658 168.403,162.667 168.492 C 163.675 168.581,165.475 168.737,166.667 168.840 C 167.858 168.943,169.508 169.093,170.333 169.174 C 171.158 169.255,173.033 169.398,174.500 169.491 C 175.967 169.585,177.692 169.730,178.333 169.814 C 179.450 169.960,182.405 170.220,186.333 170.518 C 187.342 170.594,189.367 170.747,190.833 170.857 C 194.058 171.099,193.860 170.899,192.829 172.886 C 191.222 175.983,190.457 182.586,191.621 183.305 C 191.820 183.428,192.028 183.825,192.084 184.188 C 192.706 188.265,202.333 194.436,202.333 190.758 C 202.333 190.511,202.576 189.940,202.872 189.488 C 203.168 189.036,203.325 188.667,203.222 188.667 C 203.119 188.667,203.234 188.179,203.478 187.583 C 205.560 182.506,202.095 175.209,196.293 172.454 C 195.215 171.942,194.333 171.396,194.333 171.242 C 194.333 171.087,194.451 171.033,194.594 171.122 C 194.827 171.266,197.030 171.479,202.167 171.856 C 203.083 171.923,204.583 172.048,205.500 172.134 C 206.417 172.219,208.217 172.378,209.500 172.487 C 210.783 172.596,212.730 172.762,213.826 172.856 C 215.718 173.018,217.333 173.885,217.333 174.739 C 217.333 174.898,217.484 175.209,217.668 175.431 C 218.371 176.275,220.895 179.758,222.333 181.869 C 223.158 183.079,224.149 184.456,224.535 184.929 L 225.238 185.789 225.824 184.895 C 226.862 183.310,226.985 183.884,227.076 190.750 L 227.167 197.500 228.583 197.602 L 230.000 197.705 230.000 189.262 L 230.000 180.820 232.165 178.493 C 233.355 177.214,234.330 176.041,234.331 175.888 C 234.332 175.735,230.871 172.135,226.639 167.888 C 221.606 162.838,219.127 160.129,219.472 160.059 C 219.762 160.000,220.000 159.829,220.000 159.679 C 220.000 159.530,220.525 159.309,221.167 159.189 C 222.617 158.917,222.618 158.740,221.172 157.339 L 220.011 156.213 222.003 155.357 C 224.160 154.429,227.331 151.874,228.139 150.411 C 229.559 147.842,230.085 146.202,230.090 144.333 C 230.091 144.058,230.071 132.471,230.046 118.583 L 230.000 93.333 228.500 93.333 L 227.000 93.333 227.000 119.778 M240.484 108.026 C 240.380 108.195,240.016 108.333,239.675 108.333 C 237.637 108.333,233.517 116.416,233.387 120.667 C 233.379 120.942,233.226 122.067,233.048 123.167 C 232.671 125.489,232.791 136.393,233.200 137.053 C 233.353 137.299,233.494 137.800,233.515 138.167 C 233.536 138.533,233.644 139.058,233.756 139.333 C 233.868 139.608,234.039 140.433,234.135 141.167 C 234.939 147.271,239.540 151.994,243.196 150.466 C 244.633 149.866,245.986 148.714,245.994 148.083 C 245.997 147.854,246.114 147.667,246.254 147.667 C 246.394 147.667,246.681 147.329,246.892 146.917 C 247.649 145.434,248.396 143.827,248.480 143.500 C 248.527 143.317,248.675 142.916,248.809 142.609 C 248.942 142.303,249.091 141.853,249.140 141.609 C 249.189 141.366,249.323 140.792,249.438 140.333 C 249.645 139.512,249.768 138.781,250.250 135.500 C 251.125 129.550,249.676 116.130,247.948 114.183 C 247.793 114.009,247.667 113.648,247.667 113.381 C 247.667 113.115,247.292 112.405,246.833 111.804 C 246.375 111.203,246.000 110.577,246.000 110.414 C 246.000 109.131,241.110 107.014,240.484 108.026 M209.000 111.973 C 207.617 112.345,208.554 118.021,210.407 120.500 C 213.570 124.729,216.452 126.089,222.000 125.972 C 225.147 125.906,225.941 125.837,226.166 125.612 C 226.849 124.928,224.844 118.430,223.367 116.543 C 222.490 115.422,220.192 113.333,219.833 113.331 C 219.650 113.330,219.078 113.109,218.562 112.840 C 218.045 112.571,217.295 112.305,216.895 112.250 C 216.494 112.195,216.017 112.059,215.833 111.948 C 215.382 111.674,210.040 111.694,209.000 111.973 M242.708 113.751 C 243.816 115.966,244.675 118.347,244.842 119.665 C 244.913 120.229,245.057 121.264,245.162 121.966 C 245.841 126.521,245.841 133.583,245.162 136.667 C 245.061 137.125,244.843 138.183,244.677 139.017 C 243.934 142.758,241.981 146.566,241.230 145.737 C 240.920 145.394,240.667 145.032,240.667 144.931 C 240.667 144.830,240.256 143.867,239.754 142.790 C 239.252 141.714,238.819 140.608,238.792 140.333 C 238.765 140.058,238.486 138.490,238.172 136.847 C 237.592 133.815,237.422 126.884,237.845 123.500 C 237.960 122.583,238.057 121.608,238.062 121.333 C 238.066 121.058,238.443 119.633,238.900 118.167 C 239.356 116.700,239.757 115.345,239.791 115.156 C 239.824 114.967,240.185 114.344,240.592 113.771 C 241.000 113.199,241.333 112.566,241.333 112.365 C 241.333 111.546,241.883 112.100,242.708 113.751 M241.464 119.275 C 241.592 119.483,241.553 119.922,241.377 120.251 C 240.868 121.203,240.497 125.176,240.530 129.333 C 240.557 132.728,240.670 134.203,241.142 137.333 C 241.211 137.792,241.282 138.459,241.300 138.817 C 241.358 139.950,241.944 138.925,242.148 137.333 C 242.254 136.508,242.447 135.083,242.577 134.167 C 242.869 132.103,242.882 126.404,242.598 124.167 C 242.133 120.491,241.892 119.306,241.569 119.106 C 241.378 118.988,241.332 119.062,241.464 119.275 M179.236 124.848 C 180.357 125.583,180.972 127.264,180.570 128.500 C 180.293 129.354,178.863 131.129,178.590 130.958 C 178.541 130.927,178.166 131.008,177.759 131.137 C 176.728 131.465,174.749 130.459,174.152 129.305 C 172.423 125.961,176.063 122.769,179.236 124.848 M176.667 127.667 C 176.667 128.033,176.867 128.333,177.111 128.333 C 177.738 128.333,177.984 128.013,177.775 127.467 C 177.503 126.758,176.667 126.909,176.667 127.667 M215.429 128.837 C 213.460 129.424,211.394 130.721,209.848 132.339 L 208.530 133.719 209.848 134.878 C 213.047 137.690,217.199 138.435,220.592 136.804 C 222.217 136.023,222.838 135.522,224.431 133.703 L 225.362 132.640 224.295 131.508 C 222.184 129.270,218.101 128.040,215.429 128.837 M168.766 132.167 C 169.072 132.808,169.212 133.344,169.078 133.356 C 168.943 133.369,168.233 133.434,167.500 133.501 C 165.754 133.661,164.445 133.904,163.922 134.164 C 163.477 134.386,164.110 133.859,166.424 132.087 C 168.163 130.754,168.091 130.752,168.766 132.167 M205.751 147.424 C 204.231 147.857,198.279 147.724,197.802 147.246 C 197.666 147.111,197.143 147.000,196.639 147.000 C 196.135 147.000,195.672 146.887,195.611 146.750 C 195.550 146.612,194.786 146.138,193.914 145.696 C 191.563 144.504,189.818 142.717,188.241 139.882 L 187.341 138.264 189.485 136.120 C 190.665 134.940,191.729 133.661,191.851 133.277 C 192.043 132.672,193.050 133.554,199.371 139.871 C 206.473 146.967,206.644 147.170,205.751 147.424 M165.417 143.887 C 163.626 144.267,164.803 149.466,167.280 152.115 C 168.132 153.026,169.908 154.003,171.667 154.528 C 172.614 154.811,177.241 154.763,177.722 154.466 C 177.896 154.358,177.946 153.845,177.832 153.325 C 177.717 152.806,177.566 151.920,177.495 151.358 C 177.241 149.350,174.081 144.705,173.298 145.188 C 173.134 145.290,173.000 145.224,173.000 145.042 C 173.000 144.283,167.501 143.446,165.417 143.887 M243.147 157.765 C 243.056 158.002,243.023 160.439,243.074 163.181 L 243.167 168.167 244.750 168.268 L 246.333 168.370 246.333 162.852 L 246.333 157.333 244.823 157.333 C 243.895 157.333,243.249 157.500,243.147 157.765 M188.333 159.492 C 188.792 159.757,189.392 160.078,189.667 160.204 C 189.942 160.331,190.445 160.674,190.785 160.967 C 191.125 161.260,191.460 161.469,191.529 161.431 C 191.598 161.393,192.220 161.609,192.911 161.911 C 193.601 162.213,194.242 162.479,194.333 162.503 C 194.425 162.527,195.175 162.744,196.000 162.985 C 200.254 164.230,207.637 164.549,209.242 163.557 C 209.396 163.461,209.882 163.935,210.324 164.608 C 210.765 165.282,211.696 166.613,212.393 167.565 C 213.482 169.053,213.660 170.114,212.724 169.535 C 212.572 169.442,211.035 169.281,209.307 169.179 C 207.580 169.077,205.562 168.929,204.822 168.849 C 203.028 168.656,199.006 168.333,196.333 168.169 C 195.142 168.095,193.567 167.960,192.833 167.867 C 192.100 167.775,190.271 167.613,188.769 167.507 C 187.267 167.401,185.392 167.240,184.602 167.149 C 183.813 167.059,182.192 166.918,181.000 166.836 C 179.808 166.754,178.008 166.600,177.000 166.494 C 175.992 166.387,174.117 166.239,172.833 166.165 C 171.550 166.091,169.975 165.961,169.333 165.875 C 168.315 165.739,166.710 165.604,160.833 165.160 C 160.100 165.105,158.375 164.955,157.000 164.827 C 155.625 164.699,154.125 164.573,153.667 164.547 C 152.857 164.501,152.831 164.421,152.737 161.750 L 152.640 159.000 170.070 159.005 C 184.661 159.009,187.636 159.088,188.333 159.492 M237.000 174.667 L 237.000 188.667 238.500 188.667 L 240.000 188.667 240.000 174.667 L 240.000 160.667 238.500 160.667 L 237.000 160.667 237.000 174.667 M243.153 170.081 C 243.058 170.330,243.022 172.551,243.073 175.017 L 243.167 179.500 244.667 179.500 L 246.167 179.500 246.167 174.667 L 246.167 169.833 244.747 169.731 C 243.782 169.661,243.272 169.773,243.153 170.081 M184.603 171.173 C 184.547 171.229,183.750 171.313,182.833 171.360 C 179.584 171.527,176.893 173.636,175.037 177.472 L 174.065 179.480 174.949 180.015 C 177.000 181.256,180.658 181.662,183.124 180.923 C 185.399 180.242,189.667 175.221,189.667 173.226 C 189.667 172.672,185.002 170.781,184.603 171.173 M213.751 185.580 C 212.941 185.724,212.947 188.028,213.763 190.000 C 213.953 190.458,214.093 190.918,214.074 191.022 C 213.956 191.693,216.768 194.635,218.343 195.485 C 221.756 197.329,226.952 196.948,226.514 194.886 C 226.391 194.307,226.230 193.403,226.156 192.878 C 225.453 187.865,219.754 184.512,213.751 185.580 M126.000 249.667 L 126.000 287.333 129.463 287.333 C 134.047 287.333,134.389 287.083,134.647 283.535 L 134.833 280.979 136.867 282.948 C 138.902 284.917,139.381 285.245,142.500 286.814 C 144.081 287.609,146.977 288.169,149.167 288.102 C 151.672 288.025,154.367 287.672,154.987 287.340 C 155.361 287.140,155.667 287.061,155.667 287.163 C 155.667 287.266,156.109 287.122,156.650 286.842 C 157.191 286.562,157.919 286.333,158.267 286.333 C 158.615 286.333,159.521 285.883,160.280 285.333 C 161.040 284.783,161.784 284.333,161.934 284.333 C 163.393 284.333,169.457 275.598,170.159 272.486 C 170.240 272.127,170.536 271.008,170.818 270.000 C 172.878 262.625,171.898 251.074,168.661 244.557 C 167.686 242.596,164.417 238.667,163.760 238.667 C 163.589 238.667,163.102 238.296,162.676 237.844 C 162.251 237.391,161.775 237.100,161.618 237.197 C 161.462 237.293,161.333 237.225,161.333 237.046 C 161.333 236.775,160.117 236.230,158.500 235.776 C 158.317 235.725,157.342 235.444,156.333 235.152 C 153.417 234.308,145.543 235.098,144.183 236.370 C 144.009 236.533,143.592 236.667,143.256 236.667 C 142.920 236.667,142.560 236.891,142.455 237.165 C 142.349 237.439,142.149 237.592,142.008 237.505 C 141.783 237.366,141.367 237.642,139.764 238.994 C 139.543 239.181,139.270 239.333,139.158 239.333 C 139.046 239.333,138.252 240.016,137.394 240.850 L 135.833 242.367 135.747 227.183 L 135.660 212.000 130.830 212.000 L 126.000 212.000 126.000 249.667 M201.633 234.809 C 201.560 234.881,200.825 235.014,200.000 235.105 C 193.823 235.782,186.777 240.743,183.953 246.403 C 182.700 248.915,181.677 251.390,181.571 252.167 C 181.521 252.533,181.379 252.997,181.254 253.196 C 179.276 256.361,180.683 269.026,183.699 275.211 C 188.283 284.611,196.701 288.879,208.651 287.862 C 210.201 287.730,211.625 287.526,211.817 287.407 C 212.009 287.288,212.391 287.181,212.666 287.169 C 213.713 287.122,215.667 286.582,215.667 286.340 C 215.667 286.201,216.218 285.998,216.891 285.888 C 218.052 285.700,222.040 283.515,222.278 282.937 C 222.339 282.788,222.549 282.667,222.744 282.667 C 223.183 282.667,225.333 280.487,225.333 280.042 C 225.333 279.445,222.793 276.603,221.770 276.055 C 221.122 275.708,217.000 277.420,217.000 278.036 C 217.000 278.200,216.793 278.333,216.540 278.333 C 216.287 278.333,215.275 278.701,214.290 279.150 C 213.306 279.599,212.050 280.047,211.500 280.144 C 210.950 280.242,210.050 280.449,209.500 280.604 C 206.652 281.406,201.062 280.580,198.022 278.908 C 196.172 277.891,195.607 277.497,194.901 276.734 C 194.680 276.496,194.156 275.933,193.735 275.484 C 193.314 275.034,193.089 274.664,193.235 274.662 C 193.381 274.659,193.333 274.546,193.128 274.412 C 192.603 274.066,191.184 271.251,191.281 270.750 C 191.326 270.521,191.197 270.333,190.995 270.333 C 190.793 270.333,190.714 270.194,190.819 270.023 C 190.925 269.852,190.848 269.612,190.649 269.489 C 190.451 269.366,190.367 269.061,190.463 268.810 C 190.559 268.560,190.492 268.265,190.313 268.154 C 190.135 268.044,190.069 267.824,190.168 267.665 C 190.266 267.507,190.187 266.668,189.993 265.802 C 189.799 264.935,189.594 263.613,189.538 262.863 L 189.436 261.500 207.370 261.500 C 224.637 261.500,225.322 261.476,225.770 260.863 C 226.904 259.313,225.657 248.168,224.250 247.275 C 224.021 247.129,223.955 247.008,224.104 247.005 C 224.384 247.000,222.880 244.017,222.002 242.836 C 221.142 241.681,217.256 238.000,216.896 238.000 C 216.707 238.000,216.316 237.792,216.026 237.537 C 214.199 235.931,202.708 233.752,201.633 234.809 M230.870 237.049 C 231.156 238.031,231.602 239.166,231.862 239.572 C 232.121 239.978,232.333 240.540,232.333 240.822 C 232.333 241.103,232.492 241.333,232.686 241.333 C 232.880 241.333,232.960 241.462,232.862 241.620 C 232.765 241.777,233.041 242.640,233.476 243.536 C 233.910 244.433,234.450 245.767,234.675 246.500 C 234.900 247.233,235.270 248.058,235.497 248.333 C 235.725 248.608,236.017 249.283,236.148 249.833 C 236.278 250.383,236.748 251.558,237.193 252.444 C 237.637 253.330,238.002 254.305,238.004 254.611 C 238.006 254.916,238.381 255.819,238.837 256.617 C 239.293 257.415,239.667 258.295,239.667 258.572 C 239.667 258.849,239.956 259.621,240.310 260.288 C 240.665 260.955,241.201 262.286,241.503 263.246 C 241.804 264.206,242.190 265.078,242.359 265.182 C 242.528 265.287,242.667 265.664,242.667 266.020 C 242.667 266.376,242.826 266.667,243.020 266.667 C 243.214 266.667,243.293 266.796,243.196 266.953 C 243.098 267.111,243.374 267.973,243.809 268.870 C 244.244 269.766,244.783 271.100,245.008 271.833 C 245.233 272.567,245.613 273.392,245.852 273.667 C 246.090 273.942,246.273 274.242,246.256 274.333 C 246.188 274.715,247.146 277.224,247.716 278.159 C 248.054 278.713,248.333 279.467,248.336 279.833 C 248.339 280.200,248.715 281.153,249.171 281.951 C 249.627 282.749,250.000 283.613,250.000 283.871 C 250.000 284.129,250.338 285.010,250.750 285.828 L 251.500 287.315 255.515 287.324 L 259.529 287.333 260.598 284.998 C 261.186 283.714,261.667 282.448,261.667 282.185 C 261.667 281.921,261.805 281.620,261.975 281.516 C 262.144 281.411,262.529 280.540,262.831 279.579 C 263.132 278.619,263.669 277.288,264.023 276.621 C 264.377 275.955,264.667 275.182,264.667 274.905 C 264.667 274.628,265.040 273.749,265.496 272.951 C 265.952 272.153,266.327 271.306,266.329 271.069 C 266.332 270.833,266.783 269.676,267.333 268.500 C 267.883 267.324,268.333 266.055,268.333 265.681 C 268.333 265.306,268.471 265.000,268.640 265.000 C 268.808 265.000,269.204 264.212,269.519 263.250 C 269.834 262.287,270.371 260.943,270.712 260.263 C 271.054 259.583,271.380 258.758,271.437 258.430 C 271.493 258.102,271.943 256.994,272.436 255.968 C 272.930 254.942,273.333 253.942,273.333 253.745 C 273.333 253.549,273.706 252.646,274.162 251.738 C 274.618 250.831,275.039 249.806,275.097 249.461 C 275.156 249.116,275.439 248.383,275.726 247.833 C 276.014 247.283,276.361 246.458,276.499 246.000 C 276.636 245.542,277.180 244.235,277.708 243.097 C 278.235 241.959,278.667 240.866,278.667 240.669 C 278.667 240.471,278.879 239.978,279.138 239.572 C 279.398 239.166,279.840 238.046,280.120 237.083 L 280.631 235.333 277.399 235.335 C 273.612 235.337,271.921 235.728,271.249 236.756 C 270.758 237.506,266.334 248.447,266.332 248.915 C 266.331 249.143,264.753 253.198,264.028 254.833 C 261.189 261.245,257.757 270.053,256.821 273.333 C 256.324 275.075,255.838 276.725,255.742 277.000 C 255.646 277.275,255.374 276.683,255.138 275.685 C 254.902 274.686,254.571 273.561,254.401 273.185 C 254.232 272.808,253.819 271.600,253.484 270.500 C 253.149 269.400,252.517 267.675,252.079 266.667 C 251.641 265.658,251.053 264.158,250.773 263.333 C 250.492 262.508,249.904 261.041,249.465 260.073 C 249.026 259.106,248.667 258.162,248.667 257.976 C 248.667 257.791,248.204 256.649,247.639 255.440 C 247.073 254.231,246.551 252.925,246.478 252.537 C 246.348 251.850,245.298 249.213,243.279 244.500 C 242.729 243.217,242.050 241.417,241.770 240.500 C 240.383 235.968,239.793 235.558,234.425 235.392 L 230.349 235.265 230.870 237.049 M209.819 242.326 C 210.639 242.723,211.353 243.007,211.405 242.956 C 211.610 242.757,215.493 246.218,215.509 246.615 C 215.513 246.735,215.808 247.268,216.163 247.800 C 216.518 248.332,216.846 248.932,216.891 249.133 C 216.937 249.335,217.142 250.100,217.347 250.833 C 217.552 251.567,217.798 252.954,217.894 253.917 L 218.069 255.667 204.031 255.667 L 189.992 255.667 190.187 254.250 C 190.379 252.852,191.060 250.799,191.762 249.500 C 191.960 249.133,192.318 248.448,192.556 247.977 C 195.165 242.816,204.511 239.757,209.819 242.326 M153.111 242.615 C 153.631 242.829,154.176 242.930,154.324 242.839 C 154.471 242.748,154.776 242.897,155.003 243.170 C 155.230 243.443,155.609 243.667,155.846 243.667 C 156.272 243.667,157.883 245.133,159.167 246.691 C 159.732 247.376,161.116 250.088,161.190 250.656 C 161.203 250.753,161.406 251.508,161.643 252.333 C 162.634 255.795,162.680 265.117,161.721 268.225 C 161.541 268.807,161.462 269.351,161.545 269.434 C 161.628 269.517,161.017 271.021,160.186 272.775 C 158.283 276.793,156.188 278.813,152.500 280.186 C 150.019 281.110,145.521 281.098,142.333 280.159 C 141.048 279.781,138.928 278.405,137.479 277.009 L 135.667 275.264 135.667 262.283 L 135.667 249.301 137.933 247.066 C 139.812 245.213,144.333 242.198,144.333 242.798 C 144.333 242.891,144.777 242.781,145.319 242.553 C 146.543 242.039,151.817 242.080,153.111 242.615 " stroke="none" fill="#f4ac84" fill-rule="evenodd"></path><path id="path1" d="M226.000 64.129 C 226.000 64.200,226.442 64.323,226.982 64.402 C 227.523 64.481,227.889 64.423,227.796 64.273 C 227.631 64.006,226.000 63.875,226.000 64.129 M230.158 118.500 C 230.158 132.433,230.200 138.085,230.250 131.059 C 230.300 124.033,230.300 112.633,230.250 105.725 C 230.200 98.818,230.158 104.567,230.158 118.500 M104.479 95.042 C 103.794 95.771,103.710 95.956,104.201 95.659 C 104.806 95.292,105.869 94.000,105.565 94.000 C 105.506 94.000,105.017 94.469,104.479 95.042 M300.176 100.005 C 301.638 101.565,302.902 102.797,302.985 102.742 C 303.068 102.687,301.873 101.410,300.328 99.904 L 297.519 97.167 300.176 100.005 M99.324 99.917 L 97.167 102.167 99.417 100.010 C 100.654 98.823,101.667 97.811,101.667 97.760 C 101.667 97.514,101.327 97.827,99.324 99.917 M293.000 97.781 C 293.000 97.833,293.474 98.316,294.054 98.854 C 295.107 99.832,295.107 99.832,294.471 98.931 C 293.940 98.179,293.000 97.445,293.000 97.781 M101.667 102.500 C 100.857 103.325,100.270 104.000,100.361 104.000 C 100.453 104.000,101.190 103.325,102.000 102.500 C 102.810 101.675,103.397 101.000,103.305 101.000 C 103.214 101.000,102.476 101.675,101.667 102.500 M309.695 110.539 C 310.138 111.111,310.567 111.519,310.649 111.446 C 310.731 111.373,310.369 110.905,309.844 110.407 L 308.891 109.500 309.695 110.539 M163.833 130.196 L 162.833 131.055 163.917 130.338 C 164.512 129.944,165.000 129.556,165.000 129.477 C 165.000 129.228,164.859 129.315,163.833 130.196 M75.360 131.950 C 74.816 132.967,74.929 133.250,75.534 132.386 C 75.828 131.967,75.990 131.545,75.894 131.450 C 75.799 131.354,75.559 131.579,75.360 131.950 M209.479 132.375 C 208.794 133.104,208.710 133.289,209.201 132.992 C 209.806 132.626,210.869 131.333,210.565 131.333 C 210.506 131.333,210.017 131.802,209.479 132.375 M224.021 134.102 L 223.209 135.167 224.271 134.188 C 225.376 133.169,225.502 132.988,225.083 133.018 C 224.946 133.029,224.468 133.516,224.021 134.102 M70.387 141.848 C 69.829 143.073,69.936 143.335,70.539 142.221 C 70.821 141.700,70.990 141.212,70.914 141.136 C 70.837 141.060,70.601 141.380,70.387 141.848 M164.461 144.147 C 164.360 144.411,164.347 144.899,164.433 145.231 C 164.538 145.635,164.602 145.539,164.628 144.940 C 164.656 144.294,164.875 144.006,165.417 143.902 L 166.167 143.757 165.406 143.712 C 164.988 143.687,164.563 143.883,164.461 144.147 M174.502 145.986 C 175.911 147.724,176.461 148.255,176.072 147.500 C 175.883 147.133,175.303 146.458,174.783 146.000 L 173.838 145.167 174.502 145.986 M226.479 152.417 L 225.500 153.500 226.583 152.521 C 227.179 151.983,227.667 151.495,227.667 151.438 C 227.667 151.180,227.392 151.407,226.479 152.417 M221.185 157.354 C 221.908 158.191,222.568 158.823,222.650 158.760 C 222.733 158.696,222.141 158.011,221.336 157.239 L 219.870 155.833 221.185 157.354 M219.421 160.655 C 219.673 161.015,220.619 161.942,221.523 162.714 C 223.095 164.057,223.080 164.029,221.177 162.059 C 219.105 159.914,218.644 159.546,219.421 160.655 M240.153 174.667 C 240.153 182.458,240.196 185.646,240.250 181.750 C 240.303 177.854,240.303 171.479,240.250 167.583 C 240.196 163.688,240.153 166.875,240.153 174.667 M225.167 166.333 C 226.070 167.250,226.883 168.000,226.975 168.000 C 227.067 168.000,226.403 167.250,225.500 166.333 C 224.597 165.417,223.783 164.667,223.692 164.667 C 223.600 164.667,224.264 165.417,225.167 166.333 M182.921 171.236 C 183.335 171.315,183.935 171.312,184.254 171.229 C 184.573 171.146,184.233 171.080,183.500 171.084 C 182.767 171.088,182.506 171.156,182.921 171.236 M234.155 175.612 C 234.316 175.895,234.002 176.502,233.294 177.279 L 232.179 178.500 233.495 177.256 C 234.590 176.220,234.735 175.940,234.357 175.589 C 233.988 175.246,233.950 175.251,234.155 175.612 M230.146 189.000 C 230.146 193.858,230.192 195.846,230.249 193.417 C 230.306 190.987,230.306 187.012,230.249 184.583 C 230.192 182.154,230.146 184.142,230.146 189.000 M62.411 216.333 C 62.411 216.975,62.479 217.237,62.563 216.917 C 62.647 216.596,62.647 216.071,62.563 215.750 C 62.479 215.429,62.411 215.692,62.411 216.333 M162.907 238.025 C 163.315 238.449,163.732 238.712,163.834 238.610 C 163.937 238.507,163.604 238.160,163.094 237.838 L 162.167 237.253 162.907 238.025 M242.025 241.333 C 242.024 241.814,242.964 243.722,242.988 243.288 C 242.995 243.172,242.781 242.572,242.513 241.955 C 242.245 241.338,242.026 241.058,242.025 241.333 M182.387 249.181 C 181.829 250.407,181.936 250.668,182.539 249.554 C 182.821 249.033,182.990 248.545,182.914 248.469 C 182.837 248.393,182.601 248.713,182.387 249.181 M265.930 249.175 C 265.827 249.537,265.641 250.133,265.517 250.500 C 265.392 250.867,265.535 250.745,265.833 250.230 C 266.132 249.715,266.317 249.119,266.246 248.905 C 266.175 248.692,266.033 248.813,265.930 249.175 M265.000 251.432 C 265.000 251.548,264.689 252.435,264.309 253.404 C 263.930 254.374,263.757 255.017,263.926 254.833 C 264.392 254.328,265.386 251.609,265.181 251.403 C 265.081 251.303,265.000 251.317,265.000 251.432 M237.270 253.167 C 237.439 253.533,237.660 254.058,237.762 254.333 C 237.922 254.765,237.951 254.763,237.974 254.314 C 237.988 254.028,237.767 253.503,237.482 253.147 C 236.972 252.510,236.968 252.511,237.270 253.167 M246.727 253.562 C 247.316 254.946,247.745 255.323,247.310 254.075 C 247.103 253.483,246.798 252.914,246.631 252.811 C 246.465 252.708,246.508 253.046,246.727 253.562 M324.387 260.181 C 323.829 261.407,323.936 261.668,324.539 260.554 C 324.821 260.033,324.990 259.545,324.914 259.469 C 324.837 259.393,324.601 259.713,324.387 260.181 M323.167 262.667 C 322.882 263.217,322.725 263.667,322.816 263.667 C 322.908 263.667,323.216 263.217,323.500 262.667 C 323.784 262.117,323.942 261.667,323.850 261.667 C 323.759 261.667,323.451 262.117,323.167 262.667 M158.234 275.866 C 157.905 276.306,157.756 276.667,157.904 276.667 C 158.195 276.667,159.115 275.334,158.940 275.167 C 158.881 275.111,158.564 275.426,158.234 275.866 M81.698 278.333 C 82.664 279.830,82.667 279.834,82.665 279.472 C 82.664 279.304,82.277 278.717,81.804 278.167 L 80.945 277.167 81.698 278.333 M247.345 277.712 C 247.339 277.828,247.552 278.428,247.820 279.045 C 248.088 279.662,248.308 279.942,248.308 279.667 C 248.310 279.186,247.369 277.278,247.345 277.712 M83.505 281.094 C 83.827 281.604,84.174 281.937,84.277 281.834 C 84.379 281.732,84.116 281.315,83.691 280.907 L 82.920 280.167 83.505 281.094 M145.750 280.896 C 146.071 280.980,146.596 280.980,146.917 280.896 C 147.237 280.813,146.975 280.744,146.333 280.744 C 145.692 280.744,145.429 280.813,145.750 280.896 M134.744 282.000 C 134.744 282.642,134.813 282.904,134.896 282.583 C 134.980 282.262,134.980 281.737,134.896 281.417 C 134.813 281.096,134.744 281.358,134.744 282.000 M164.247 282.180 C 163.744 282.646,163.333 283.124,163.333 283.243 C 163.333 283.361,163.783 283.027,164.333 282.500 C 165.252 281.620,165.476 281.333,165.247 281.333 C 165.199 281.333,164.749 281.714,164.247 282.180 M156.667 286.833 C 155.578 287.456,155.959 287.463,157.378 286.846 C 157.995 286.579,158.275 286.359,158.000 286.358 C 157.725 286.358,157.125 286.571,156.667 286.833 M95.333 290.771 C 95.333 290.828,95.821 291.316,96.417 291.854 L 97.500 292.833 96.521 291.750 C 95.608 290.740,95.333 290.513,95.333 290.771 M306.952 292.750 C 306.413 293.519,306.364 293.696,306.781 293.361 C 307.375 292.884,308.156 291.667,307.868 291.667 C 307.782 291.667,307.370 292.154,306.952 292.750 M94.649 295.126 C 95.281 295.790,95.850 296.333,95.914 296.333 C 96.198 296.333,94.769 294.691,94.167 294.325 C 93.800 294.102,94.017 294.463,94.649 295.126 M101.703 297.583 C 102.508 298.454,103.767 299.683,104.500 300.314 C 105.233 300.944,104.637 300.232,103.174 298.730 C 100.288 295.766,99.340 295.027,101.703 297.583 M97.333 298.092 C 97.333 298.142,98.496 299.305,99.917 300.675 L 102.500 303.167 100.008 300.583 C 97.694 298.184,97.333 297.848,97.333 298.092 M107.667 303.333 C 108.089 303.700,108.511 304.000,108.603 304.000 C 108.695 304.000,108.498 303.700,108.167 303.333 C 107.835 302.967,107.414 302.667,107.231 302.667 C 107.048 302.667,107.244 302.967,107.667 303.333 M296.396 303.680 C 295.995 304.053,295.667 304.455,295.667 304.571 C 295.667 304.688,296.042 304.431,296.500 304.000 C 297.282 303.266,297.475 303.000,297.230 303.000 C 297.172 303.000,296.797 303.306,296.396 303.680 M290.146 304.750 L 289.167 305.833 290.250 304.854 C 290.846 304.316,291.333 303.828,291.333 303.771 C 291.333 303.513,291.058 303.740,290.146 304.750 " stroke="none" fill="#f8ac84" fill-rule="evenodd"></path><path id="path2" d="M226.000 64.129 C 226.000 64.200,226.442 64.323,226.982 64.402 C 227.523 64.481,227.889 64.423,227.796 64.273 C 227.631 64.006,226.000 63.875,226.000 64.129 M230.158 118.500 C 230.158 132.433,230.200 138.085,230.250 131.059 C 230.300 124.033,230.300 112.633,230.250 105.725 C 230.200 98.818,230.158 104.567,230.158 118.500 M104.479 95.042 C 103.794 95.771,103.710 95.956,104.201 95.659 C 104.806 95.292,105.869 94.000,105.565 94.000 C 105.506 94.000,105.017 94.469,104.479 95.042 M300.176 100.005 C 301.638 101.565,302.902 102.797,302.985 102.742 C 303.068 102.687,301.873 101.410,300.328 99.904 L 297.519 97.167 300.176 100.005 M99.324 99.917 L 97.167 102.167 99.417 100.010 C 100.654 98.823,101.667 97.811,101.667 97.760 C 101.667 97.514,101.327 97.827,99.324 99.917 M293.000 97.781 C 293.000 97.833,293.474 98.316,294.054 98.854 C 295.107 99.832,295.107 99.832,294.471 98.931 C 293.940 98.179,293.000 97.445,293.000 97.781 M101.667 102.500 C 100.857 103.325,100.270 104.000,100.361 104.000 C 100.453 104.000,101.190 103.325,102.000 102.500 C 102.810 101.675,103.397 101.000,103.305 101.000 C 103.214 101.000,102.476 101.675,101.667 102.500 M309.695 110.539 C 310.138 111.111,310.567 111.519,310.649 111.446 C 310.731 111.373,310.369 110.905,309.844 110.407 L 308.891 109.500 309.695 110.539 M163.833 130.196 L 162.833 131.055 163.917 130.338 C 164.512 129.944,165.000 129.556,165.000 129.477 C 165.000 129.228,164.859 129.315,163.833 130.196 M75.360 131.950 C 74.816 132.967,74.929 133.250,75.534 132.386 C 75.828 131.967,75.990 131.545,75.894 131.450 C 75.799 131.354,75.559 131.579,75.360 131.950 M209.479 132.375 C 208.794 133.104,208.710 133.289,209.201 132.992 C 209.806 132.626,210.869 131.333,210.565 131.333 C 210.506 131.333,210.017 131.802,209.479 132.375 M224.021 134.102 L 223.209 135.167 224.271 134.188 C 225.376 133.169,225.502 132.988,225.083 133.018 C 224.946 133.029,224.468 133.516,224.021 134.102 M70.387 141.848 C 69.829 143.073,69.936 143.335,70.539 142.221 C 70.821 141.700,70.990 141.212,70.914 141.136 C 70.837 141.060,70.601 141.380,70.387 141.848 M164.461 144.147 C 164.360 144.411,164.347 144.899,164.433 145.231 C 164.538 145.635,164.602 145.539,164.628 144.940 C 164.656 144.294,164.875 144.006,165.417 143.902 L 166.167 143.757 165.406 143.712 C 164.988 143.687,164.563 143.883,164.461 144.147 M174.502 145.986 C 175.911 147.724,176.461 148.255,176.072 147.500 C 175.883 147.133,175.303 146.458,174.783 146.000 L 173.838 145.167 174.502 145.986 M226.479 152.417 L 225.500 153.500 226.583 152.521 C 227.179 151.983,227.667 151.495,227.667 151.438 C 227.667 151.180,227.392 151.407,226.479 152.417 M221.185 157.354 C 221.908 158.191,222.568 158.823,222.650 158.760 C 222.733 158.696,222.141 158.011,221.336 157.239 L 219.870 155.833 221.185 157.354 M219.421 160.655 C 219.673 161.015,220.619 161.942,221.523 162.714 C 223.095 164.057,223.080 164.029,221.177 162.059 C 219.105 159.914,218.644 159.546,219.421 160.655 M240.153 174.667 C 240.153 182.458,240.196 185.646,240.250 181.750 C 240.303 177.854,240.303 171.479,240.250 167.583 C 240.196 163.688,240.153 166.875,240.153 174.667 M225.167 166.333 C 226.070 167.250,226.883 168.000,226.975 168.000 C 227.067 168.000,226.403 167.250,225.500 166.333 C 224.597 165.417,223.783 164.667,223.692 164.667 C 223.600 164.667,224.264 165.417,225.167 166.333 M182.921 171.236 C 183.335 171.315,183.935 171.312,184.254 171.229 C 184.573 171.146,184.233 171.080,183.500 171.084 C 182.767 171.088,182.506 171.156,182.921 171.236 M234.155 175.612 C 234.316 175.895,234.002 176.502,233.294 177.279 L 232.179 178.500 233.495 177.256 C 234.590 176.220,234.735 175.940,234.357 175.589 C 233.988 175.246,233.950 175.251,234.155 175.612 M230.146 189.000 C 230.146 193.858,230.192 195.846,230.249 193.417 C 230.306 190.987,230.306 187.012,230.249 184.583 C 230.192 182.154,230.146 184.142,230.146 189.000 M62.411 216.333 C 62.411 216.975,62.479 217.237,62.563 216.917 C 62.647 216.596,62.647 216.071,62.563 215.750 C 62.479 215.429,62.411 215.692,62.411 216.333 M162.907 238.025 C 163.315 238.449,163.732 238.712,163.834 238.610 C 163.937 238.507,163.604 238.160,163.094 237.838 L 162.167 237.253 162.907 238.025 M242.025 241.333 C 242.024 241.814,242.964 243.722,242.988 243.288 C 242.995 243.172,242.781 242.572,242.513 241.955 C 242.245 241.338,242.026 241.058,242.025 241.333 M182.387 249.181 C 181.829 250.407,181.936 250.668,182.539 249.554 C 182.821 249.033,182.990 248.545,182.914 248.469 C 182.837 248.393,182.601 248.713,182.387 249.181 M265.930 249.175 C 265.827 249.537,265.641 250.133,265.517 250.500 C 265.392 250.867,265.535 250.745,265.833 250.230 C 266.132 249.715,266.317 249.119,266.246 248.905 C 266.175 248.692,266.033 248.813,265.930 249.175 M265.000 251.432 C 265.000 251.548,264.689 252.435,264.309 253.404 C 263.930 254.374,263.757 255.017,263.926 254.833 C 264.392 254.328,265.386 251.609,265.181 251.403 C 265.081 251.303,265.000 251.317,265.000 251.432 M237.270 253.167 C 237.439 253.533,237.660 254.058,237.762 254.333 C 237.922 254.765,237.951 254.763,237.974 254.314 C 237.988 254.028,237.767 253.503,237.482 253.147 C 236.972 252.510,236.968 252.511,237.270 253.167 M246.727 253.562 C 247.316 254.946,247.745 255.323,247.310 254.075 C 247.103 253.483,246.798 252.914,246.631 252.811 C 246.465 252.708,246.508 253.046,246.727 253.562 M324.387 260.181 C 323.829 261.407,323.936 261.668,324.539 260.554 C 324.821 260.033,324.990 259.545,324.914 259.469 C 324.837 259.393,324.601 259.713,324.387 260.181 M323.167 262.667 C 322.882 263.217,322.725 263.667,322.816 263.667 C 322.908 263.667,323.216 263.217,323.500 262.667 C 323.784 262.117,323.942 261.667,323.850 261.667 C 323.759 261.667,323.451 262.117,323.167 262.667 M158.234 275.866 C 157.905 276.306,157.756 276.667,157.904 276.667 C 158.195 276.667,159.115 275.334,158.940 275.167 C 158.881 275.111,158.564 275.426,158.234 275.866 M81.698 278.333 C 82.664 279.830,82.667 279.834,82.665 279.472 C 82.664 279.304,82.277 278.717,81.804 278.167 L 80.945 277.167 81.698 278.333 M247.345 277.712 C 247.339 277.828,247.552 278.428,247.820 279.045 C 248.088 279.662,248.308 279.942,248.308 279.667 C 248.310 279.186,247.369 277.278,247.345 277.712 M83.505 281.094 C 83.827 281.604,84.174 281.937,84.277 281.834 C 84.379 281.732,84.116 281.315,83.691 280.907 L 82.920 280.167 83.505 281.094 M145.750 280.896 C 146.071 280.980,146.596 280.980,146.917 280.896 C 147.237 280.813,146.975 280.744,146.333 280.744 C 145.692 280.744,145.429 280.813,145.750 280.896 M134.744 282.000 C 134.744 282.642,134.813 282.904,134.896 282.583 C 134.980 282.262,134.980 281.737,134.896 281.417 C 134.813 281.096,134.744 281.358,134.744 282.000 M164.247 282.180 C 163.744 282.646,163.333 283.124,163.333 283.243 C 163.333 283.361,163.783 283.027,164.333 282.500 C 165.252 281.620,165.476 281.333,165.247 281.333 C 165.199 281.333,164.749 281.714,164.247 282.180 M156.667 286.833 C 155.578 287.456,155.959 287.463,157.378 286.846 C 157.995 286.579,158.275 286.359,158.000 286.358 C 157.725 286.358,157.125 286.571,156.667 286.833 M95.333 290.771 C 95.333 290.828,95.821 291.316,96.417 291.854 L 97.500 292.833 96.521 291.750 C 95.608 290.740,95.333 290.513,95.333 290.771 M306.952 292.750 C 306.413 293.519,306.364 293.696,306.781 293.361 C 307.375 292.884,308.156 291.667,307.868 291.667 C 307.782 291.667,307.370 292.154,306.952 292.750 M94.649 295.126 C 95.281 295.790,95.850 296.333,95.914 296.333 C 96.198 296.333,94.769 294.691,94.167 294.325 C 93.800 294.102,94.017 294.463,94.649 295.126 M101.703 297.583 C 102.508 298.454,103.767 299.683,104.500 300.314 C 105.233 300.944,104.637 300.232,103.174 298.730 C 100.288 295.766,99.340 295.027,101.703 297.583 M97.333 298.092 C 97.333 298.142,98.496 299.305,99.917 300.675 L 102.500 303.167 100.008 300.583 C 97.694 298.184,97.333 297.848,97.333 298.092 M107.667 303.333 C 108.089 303.700,108.511 304.000,108.603 304.000 C 108.695 304.000,108.498 303.700,108.167 303.333 C 107.835 302.967,107.414 302.667,107.231 302.667 C 107.048 302.667,107.244 302.967,107.667 303.333 M296.396 303.680 C 295.995 304.053,295.667 304.455,295.667 304.571 C 295.667 304.688,296.042 304.431,296.500 304.000 C 297.282 303.266,297.475 303.000,297.230 303.000 C 297.172 303.000,296.797 303.306,296.396 303.680 M290.146 304.750 L 289.167 305.833 290.250 304.854 C 290.846 304.316,291.333 303.828,291.333 303.771 C 291.333 303.513,291.058 303.740,290.146 304.750 " stroke="none" fill="#f8ac84" fill-rule="evenodd"></path><path id="path3" d="M226.000 64.129 C 226.000 64.200,226.442 64.323,226.982 64.402 C 227.523 64.481,227.889 64.423,227.796 64.273 C 227.631 64.006,226.000 63.875,226.000 64.129 M230.158 118.500 C 230.158 132.433,230.200 138.085,230.250 131.059 C 230.300 124.033,230.300 112.633,230.250 105.725 C 230.200 98.818,230.158 104.567,230.158 118.500 M104.479 95.042 C 103.794 95.771,103.710 95.956,104.201 95.659 C 104.806 95.292,105.869 94.000,105.565 94.000 C 105.506 94.000,105.017 94.469,104.479 95.042 M300.176 100.005 C 301.638 101.565,302.902 102.797,302.985 102.742 C 303.068 102.687,301.873 101.410,300.328 99.904 L 297.519 97.167 300.176 100.005 M99.324 99.917 L 97.167 102.167 99.417 100.010 C 100.654 98.823,101.667 97.811,101.667 97.760 C 101.667 97.514,101.327 97.827,99.324 99.917 M293.000 97.781 C 293.000 97.833,293.474 98.316,294.054 98.854 C 295.107 99.832,295.107 99.832,294.471 98.931 C 293.940 98.179,293.000 97.445,293.000 97.781 M101.667 102.500 C 100.857 103.325,100.270 104.000,100.361 104.000 C 100.453 104.000,101.190 103.325,102.000 102.500 C 102.810 101.675,103.397 101.000,103.305 101.000 C 103.214 101.000,102.476 101.675,101.667 102.500 M309.695 110.539 C 310.138 111.111,310.567 111.519,310.649 111.446 C 310.731 111.373,310.369 110.905,309.844 110.407 L 308.891 109.500 309.695 110.539 M163.833 130.196 L 162.833 131.055 163.917 130.338 C 164.512 129.944,165.000 129.556,165.000 129.477 C 165.000 129.228,164.859 129.315,163.833 130.196 M75.360 131.950 C 74.816 132.967,74.929 133.250,75.534 132.386 C 75.828 131.967,75.990 131.545,75.894 131.450 C 75.799 131.354,75.559 131.579,75.360 131.950 M209.479 132.375 C 208.794 133.104,208.710 133.289,209.201 132.992 C 209.806 132.626,210.869 131.333,210.565 131.333 C 210.506 131.333,210.017 131.802,209.479 132.375 M224.021 134.102 L 223.209 135.167 224.271 134.188 C 225.376 133.169,225.502 132.988,225.083 133.018 C 224.946 133.029,224.468 133.516,224.021 134.102 M70.387 141.848 C 69.829 143.073,69.936 143.335,70.539 142.221 C 70.821 141.700,70.990 141.212,70.914 141.136 C 70.837 141.060,70.601 141.380,70.387 141.848 M164.461 144.147 C 164.360 144.411,164.347 144.899,164.433 145.231 C 164.538 145.635,164.602 145.539,164.628 144.940 C 164.656 144.294,164.875 144.006,165.417 143.902 L 166.167 143.757 165.406 143.712 C 164.988 143.687,164.563 143.883,164.461 144.147 M174.502 145.986 C 175.911 147.724,176.461 148.255,176.072 147.500 C 175.883 147.133,175.303 146.458,174.783 146.000 L 173.838 145.167 174.502 145.986 M226.479 152.417 L 225.500 153.500 226.583 152.521 C 227.179 151.983,227.667 151.495,227.667 151.438 C 227.667 151.180,227.392 151.407,226.479 152.417 M221.185 157.354 C 221.908 158.191,222.568 158.823,222.650 158.760 C 222.733 158.696,222.141 158.011,221.336 157.239 L 219.870 155.833 221.185 157.354 M219.421 160.655 C 219.673 161.015,220.619 161.942,221.523 162.714 C 223.095 164.057,223.080 164.029,221.177 162.059 C 219.105 159.914,218.644 159.546,219.421 160.655 M240.153 174.667 C 240.153 182.458,240.196 185.646,240.250 181.750 C 240.303 177.854,240.303 171.479,240.250 167.583 C 240.196 163.688,240.153 166.875,240.153 174.667 M225.167 166.333 C 226.070 167.250,226.883 168.000,226.975 168.000 C 227.067 168.000,226.403 167.250,225.500 166.333 C 224.597 165.417,223.783 164.667,223.692 164.667 C 223.600 164.667,224.264 165.417,225.167 166.333 M182.921 171.236 C 183.335 171.315,183.935 171.312,184.254 171.229 C 184.573 171.146,184.233 171.080,183.500 171.084 C 182.767 171.088,182.506 171.156,182.921 171.236 M234.155 175.612 C 234.316 175.895,234.002 176.502,233.294 177.279 L 232.179 178.500 233.495 177.256 C 234.590 176.220,234.735 175.940,234.357 175.589 C 233.988 175.246,233.950 175.251,234.155 175.612 M230.146 189.000 C 230.146 193.858,230.192 195.846,230.249 193.417 C 230.306 190.987,230.306 187.012,230.249 184.583 C 230.192 182.154,230.146 184.142,230.146 189.000 M62.411 216.333 C 62.411 216.975,62.479 217.237,62.563 216.917 C 62.647 216.596,62.647 216.071,62.563 215.750 C 62.479 215.429,62.411 215.692,62.411 216.333 M162.907 238.025 C 163.315 238.449,163.732 238.712,163.834 238.610 C 163.937 238.507,163.604 238.160,163.094 237.838 L 162.167 237.253 162.907 238.025 M242.025 241.333 C 242.024 241.814,242.964 243.722,242.988 243.288 C 242.995 243.172,242.781 242.572,242.513 241.955 C 242.245 241.338,242.026 241.058,242.025 241.333 M182.387 249.181 C 181.829 250.407,181.936 250.668,182.539 249.554 C 182.821 249.033,182.990 248.545,182.914 248.469 C 182.837 248.393,182.601 248.713,182.387 249.181 M265.930 249.175 C 265.827 249.537,265.641 250.133,265.517 250.500 C 265.392 250.867,265.535 250.745,265.833 250.230 C 266.132 249.715,266.317 249.119,266.246 248.905 C 266.175 248.692,266.033 248.813,265.930 249.175 M265.000 251.432 C 265.000 251.548,264.689 252.435,264.309 253.404 C 263.930 254.374,263.757 255.017,263.926 254.833 C 264.392 254.328,265.386 251.609,265.181 251.403 C 265.081 251.303,265.000 251.317,265.000 251.432 M237.270 253.167 C 237.439 253.533,237.660 254.058,237.762 254.333 C 237.922 254.765,237.951 254.763,237.974 254.314 C 237.988 254.028,237.767 253.503,237.482 253.147 C 236.972 252.510,236.968 252.511,237.270 253.167 M246.727 253.562 C 247.316 254.946,247.745 255.323,247.310 254.075 C 247.103 253.483,246.798 252.914,246.631 252.811 C 246.465 252.708,246.508 253.046,246.727 253.562 M324.387 260.181 C 323.829 261.407,323.936 261.668,324.539 260.554 C 324.821 260.033,324.990 259.545,324.914 259.469 C 324.837 259.393,324.601 259.713,324.387 260.181 M323.167 262.667 C 322.882 263.217,322.725 263.667,322.816 263.667 C 322.908 263.667,323.216 263.217,323.500 262.667 C 323.784 262.117,323.942 261.667,323.850 261.667 C 323.759 261.667,323.451 262.117,323.167 262.667 M158.234 275.866 C 157.905 276.306,157.756 276.667,157.904 276.667 C 158.195 276.667,159.115 275.334,158.940 275.167 C 158.881 275.111,158.564 275.426,158.234 275.866 M81.698 278.333 C 82.664 279.830,82.667 279.834,82.665 279.472 C 82.664 279.304,82.277 278.717,81.804 278.167 L 80.945 277.167 81.698 278.333 M247.345 277.712 C 247.339 277.828,247.552 278.428,247.820 279.045 C 248.088 279.662,248.308 279.942,248.308 279.667 C 248.310 279.186,247.369 277.278,247.345 277.712 M83.505 281.094 C 83.827 281.604,84.174 281.937,84.277 281.834 C 84.379 281.732,84.116 281.315,83.691 280.907 L 82.920 280.167 83.505 281.094 M145.750 280.896 C 146.071 280.980,146.596 280.980,146.917 280.896 C 147.237 280.813,146.975 280.744,146.333 280.744 C 145.692 280.744,145.429 280.813,145.750 280.896 M134.744 282.000 C 134.744 282.642,134.813 282.904,134.896 282.583 C 134.980 282.262,134.980 281.737,134.896 281.417 C 134.813 281.096,134.744 281.358,134.744 282.000 M164.247 282.180 C 163.744 282.646,163.333 283.124,163.333 283.243 C 163.333 283.361,163.783 283.027,164.333 282.500 C 165.252 281.620,165.476 281.333,165.247 281.333 C 165.199 281.333,164.749 281.714,164.247 282.180 M156.667 286.833 C 155.578 287.456,155.959 287.463,157.378 286.846 C 157.995 286.579,158.275 286.359,158.000 286.358 C 157.725 286.358,157.125 286.571,156.667 286.833 M95.333 290.771 C 95.333 290.828,95.821 291.316,96.417 291.854 L 97.500 292.833 96.521 291.750 C 95.608 290.740,95.333 290.513,95.333 290.771 M306.952 292.750 C 306.413 293.519,306.364 293.696,306.781 293.361 C 307.375 292.884,308.156 291.667,307.868 291.667 C 307.782 291.667,307.370 292.154,306.952 292.750 M94.649 295.126 C 95.281 295.790,95.850 296.333,95.914 296.333 C 96.198 296.333,94.769 294.691,94.167 294.325 C 93.800 294.102,94.017 294.463,94.649 295.126 M101.703 297.583 C 102.508 298.454,103.767 299.683,104.500 300.314 C 105.233 300.944,104.637 300.232,103.174 298.730 C 100.288 295.766,99.340 295.027,101.703 297.583 M97.333 298.092 C 97.333 298.142,98.496 299.305,99.917 300.675 L 102.500 303.167 100.008 300.583 C 97.694 298.184,97.333 297.848,97.333 298.092 M107.667 303.333 C 108.089 303.700,108.511 304.000,108.603 304.000 C 108.695 304.000,108.498 303.700,108.167 303.333 C 107.835 302.967,107.414 302.667,107.231 302.667 C 107.048 302.667,107.244 302.967,107.667 303.333 M296.396 303.680 C 295.995 304.053,295.667 304.455,295.667 304.571 C 295.667 304.688,296.042 304.431,296.500 304.000 C 297.282 303.266,297.475 303.000,297.230 303.000 C 297.172 303.000,296.797 303.306,296.396 303.680 M290.146 304.750 L 289.167 305.833 290.250 304.854 C 290.846 304.316,291.333 303.828,291.333 303.771 C 291.333 303.513,291.058 303.740,290.146 304.750 " stroke="none" fill="#f8ac84" fill-rule="evenodd"></path><path id="path4" d="M226.000 64.129 C 226.000 64.200,226.442 64.323,226.982 64.402 C 227.523 64.481,227.889 64.423,227.796 64.273 C 227.631 64.006,226.000 63.875,226.000 64.129 M230.158 118.500 C 230.158 132.433,230.200 138.085,230.250 131.059 C 230.300 124.033,230.300 112.633,230.250 105.725 C 230.200 98.818,230.158 104.567,230.158 118.500 M104.479 95.042 C 103.794 95.771,103.710 95.956,104.201 95.659 C 104.806 95.292,105.869 94.000,105.565 94.000 C 105.506 94.000,105.017 94.469,104.479 95.042 M300.176 100.005 C 301.638 101.565,302.902 102.797,302.985 102.742 C 303.068 102.687,301.873 101.410,300.328 99.904 L 297.519 97.167 300.176 100.005 M99.324 99.917 L 97.167 102.167 99.417 100.010 C 100.654 98.823,101.667 97.811,101.667 97.760 C 101.667 97.514,101.327 97.827,99.324 99.917 M293.000 97.781 C 293.000 97.833,293.474 98.316,294.054 98.854 C 295.107 99.832,295.107 99.832,294.471 98.931 C 293.940 98.179,293.000 97.445,293.000 97.781 M101.667 102.500 C 100.857 103.325,100.270 104.000,100.361 104.000 C 100.453 104.000,101.190 103.325,102.000 102.500 C 102.810 101.675,103.397 101.000,103.305 101.000 C 103.214 101.000,102.476 101.675,101.667 102.500 M309.695 110.539 C 310.138 111.111,310.567 111.519,310.649 111.446 C 310.731 111.373,310.369 110.905,309.844 110.407 L 308.891 109.500 309.695 110.539 M163.833 130.196 L 162.833 131.055 163.917 130.338 C 164.512 129.944,165.000 129.556,165.000 129.477 C 165.000 129.228,164.859 129.315,163.833 130.196 M75.360 131.950 C 74.816 132.967,74.929 133.250,75.534 132.386 C 75.828 131.967,75.990 131.545,75.894 131.450 C 75.799 131.354,75.559 131.579,75.360 131.950 M209.479 132.375 C 208.794 133.104,208.710 133.289,209.201 132.992 C 209.806 132.626,210.869 131.333,210.565 131.333 C 210.506 131.333,210.017 131.802,209.479 132.375 M224.021 134.102 L 223.209 135.167 224.271 134.188 C 225.376 133.169,225.502 132.988,225.083 133.018 C 224.946 133.029,224.468 133.516,224.021 134.102 M70.387 141.848 C 69.829 143.073,69.936 143.335,70.539 142.221 C 70.821 141.700,70.990 141.212,70.914 141.136 C 70.837 141.060,70.601 141.380,70.387 141.848 M164.461 144.147 C 164.360 144.411,164.347 144.899,164.433 145.231 C 164.538 145.635,164.602 145.539,164.628 144.940 C 164.656 144.294,164.875 144.006,165.417 143.902 L 166.167 143.757 165.406 143.712 C 164.988 143.687,164.563 143.883,164.461 144.147 M174.502 145.986 C 175.911 147.724,176.461 148.255,176.072 147.500 C 175.883 147.133,175.303 146.458,174.783 146.000 L 173.838 145.167 174.502 145.986 M226.479 152.417 L 225.500 153.500 226.583 152.521 C 227.179 151.983,227.667 151.495,227.667 151.438 C 227.667 151.180,227.392 151.407,226.479 152.417 M221.185 157.354 C 221.908 158.191,222.568 158.823,222.650 158.760 C 222.733 158.696,222.141 158.011,221.336 157.239 L 219.870 155.833 221.185 157.354 M219.421 160.655 C 219.673 161.015,220.619 161.942,221.523 162.714 C 223.095 164.057,223.080 164.029,221.177 162.059 C 219.105 159.914,218.644 159.546,219.421 160.655 M240.153 174.667 C 240.153 182.458,240.196 185.646,240.250 181.750 C 240.303 177.854,240.303 171.479,240.250 167.583 C 240.196 163.688,240.153 166.875,240.153 174.667 M225.167 166.333 C 226.070 167.250,226.883 168.000,226.975 168.000 C 227.067 168.000,226.403 167.250,225.500 166.333 C 224.597 165.417,223.783 164.667,223.692 164.667 C 223.600 164.667,224.264 165.417,225.167 166.333 M182.921 171.236 C 183.335 171.315,183.935 171.312,184.254 171.229 C 184.573 171.146,184.233 171.080,183.500 171.084 C 182.767 171.088,182.506 171.156,182.921 171.236 M234.155 175.612 C 234.316 175.895,234.002 176.502,233.294 177.279 L 232.179 178.500 233.495 177.256 C 234.590 176.220,234.735 175.940,234.357 175.589 C 233.988 175.246,233.950 175.251,234.155 175.612 M230.146 189.000 C 230.146 193.858,230.192 195.846,230.249 193.417 C 230.306 190.987,230.306 187.012,230.249 184.583 C 230.192 182.154,230.146 184.142,230.146 189.000 M62.411 216.333 C 62.411 216.975,62.479 217.237,62.563 216.917 C 62.647 216.596,62.647 216.071,62.563 215.750 C 62.479 215.429,62.411 215.692,62.411 216.333 M162.907 238.025 C 163.315 238.449,163.732 238.712,163.834 238.610 C 163.937 238.507,163.604 238.160,163.094 237.838 L 162.167 237.253 162.907 238.025 M242.025 241.333 C 242.024 241.814,242.964 243.722,242.988 243.288 C 242.995 243.172,242.781 242.572,242.513 241.955 C 242.245 241.338,242.026 241.058,242.025 241.333 M182.387 249.181 C 181.829 250.407,181.936 250.668,182.539 249.554 C 182.821 249.033,182.990 248.545,182.914 248.469 C 182.837 248.393,182.601 248.713,182.387 249.181 M265.930 249.175 C 265.827 249.537,265.641 250.133,265.517 250.500 C 265.392 250.867,265.535 250.745,265.833 250.230 C 266.132 249.715,266.317 249.119,266.246 248.905 C 266.175 248.692,266.033 248.813,265.930 249.175 M265.000 251.432 C 265.000 251.548,264.689 252.435,264.309 253.404 C 263.930 254.374,263.757 255.017,263.926 254.833 C 264.392 254.328,265.386 251.609,265.181 251.403 C 265.081 251.303,265.000 251.317,265.000 251.432 M237.270 253.167 C 237.439 253.533,237.660 254.058,237.762 254.333 C 237.922 254.765,237.951 254.763,237.974 254.314 C 237.988 254.028,237.767 253.503,237.482 253.147 C 236.972 252.510,236.968 252.511,237.270 253.167 M246.727 253.562 C 247.316 254.946,247.745 255.323,247.310 254.075 C 247.103 253.483,246.798 252.914,246.631 252.811 C 246.465 252.708,246.508 253.046,246.727 253.562 M324.387 260.181 C 323.829 261.407,323.936 261.668,324.539 260.554 C 324.821 260.033,324.990 259.545,324.914 259.469 C 324.837 259.393,324.601 259.713,324.387 260.181 M323.167 262.667 C 322.882 263.217,322.725 263.667,322.816 263.667 C 322.908 263.667,323.216 263.217,323.500 262.667 C 323.784 262.117,323.942 261.667,323.850 261.667 C 323.759 261.667,323.451 262.117,323.167 262.667 M158.234 275.866 C 157.905 276.306,157.756 276.667,157.904 276.667 C 158.195 276.667,159.115 275.334,158.940 275.167 C 158.881 275.111,158.564 275.426,158.234 275.866 M81.698 278.333 C 82.664 279.830,82.667 279.834,82.665 279.472 C 82.664 279.304,82.277 278.717,81.804 278.167 L 80.945 277.167 81.698 278.333 M247.345 277.712 C 247.339 277.828,247.552 278.428,247.820 279.045 C 248.088 279.662,248.308 279.942,248.308 279.667 C 248.310 279.186,247.369 277.278,247.345 277.712 M83.505 281.094 C 83.827 281.604,84.174 281.937,84.277 281.834 C 84.379 281.732,84.116 281.315,83.691 280.907 L 82.920 280.167 83.505 281.094 M145.750 280.896 C 146.071 280.980,146.596 280.980,146.917 280.896 C 147.237 280.813,146.975 280.744,146.333 280.744 C 145.692 280.744,145.429 280.813,145.750 280.896 M134.744 282.000 C 134.744 282.642,134.813 282.904,134.896 282.583 C 134.980 282.262,134.980 281.737,134.896 281.417 C 134.813 281.096,134.744 281.358,134.744 282.000 M164.247 282.180 C 163.744 282.646,163.333 283.124,163.333 283.243 C 163.333 283.361,163.783 283.027,164.333 282.500 C 165.252 281.620,165.476 281.333,165.247 281.333 C 165.199 281.333,164.749 281.714,164.247 282.180 M156.667 286.833 C 155.578 287.456,155.959 287.463,157.378 286.846 C 157.995 286.579,158.275 286.359,158.000 286.358 C 157.725 286.358,157.125 286.571,156.667 286.833 M95.333 290.771 C 95.333 290.828,95.821 291.316,96.417 291.854 L 97.500 292.833 96.521 291.750 C 95.608 290.740,95.333 290.513,95.333 290.771 M306.952 292.750 C 306.413 293.519,306.364 293.696,306.781 293.361 C 307.375 292.884,308.156 291.667,307.868 291.667 C 307.782 291.667,307.370 292.154,306.952 292.750 M94.649 295.126 C 95.281 295.790,95.850 296.333,95.914 296.333 C 96.198 296.333,94.769 294.691,94.167 294.325 C 93.800 294.102,94.017 294.463,94.649 295.126 M101.703 297.583 C 102.508 298.454,103.767 299.683,104.500 300.314 C 105.233 300.944,104.637 300.232,103.174 298.730 C 100.288 295.766,99.340 295.027,101.703 297.583 M97.333 298.092 C 97.333 298.142,98.496 299.305,99.917 300.675 L 102.500 303.167 100.008 300.583 C 97.694 298.184,97.333 297.848,97.333 298.092 M107.667 303.333 C 108.089 303.700,108.511 304.000,108.603 304.000 C 108.695 304.000,108.498 303.700,108.167 303.333 C 107.835 302.967,107.414 302.667,107.231 302.667 C 107.048 302.667,107.244 302.967,107.667 303.333 M296.396 303.680 C 295.995 304.053,295.667 304.455,295.667 304.571 C 295.667 304.688,296.042 304.431,296.500 304.000 C 297.282 303.266,297.475 303.000,297.230 303.000 C 297.172 303.000,296.797 303.306,296.396 303.680 M290.146 304.750 L 289.167 305.833 290.250 304.854 C 290.846 304.316,291.333 303.828,291.333 303.771 C 291.333 303.513,291.058 303.740,290.146 304.750 " stroke="none" fill="#f8ac84" fill-rule="evenodd"></path></g></svg>